<svg width="118" height="118" viewBox="0 0 118 118" fill="none" xmlns="http://www.w3.org/2000/svg">
<path d="M52.266 27.4898C50.8961 27.4898 49.9317 26.1438 50.3722 24.8467L56.8799 5.68231C57.4979 3.86225 60.0772 3.87684 60.6746 5.70376L66.9416 24.8682C67.3644 26.1611 66.4009 27.4898 65.0406 27.4898H52.266Z" fill="#0054DC"/>
<path d="M65.0406 90.2153C66.4009 90.2153 67.3643 91.544 66.9415 92.8369L60.6746 112.001C60.0771 113.828 57.4979 113.843 56.8798 112.023L50.3721 92.8584C49.9317 91.5613 50.8961 90.2153 52.2659 90.2153H65.0406Z" fill="#0054DC"/>
<path d="M27.1374 66.6299C27.1374 67.3116 26.4702 67.7935 25.823 67.5791L2.81178 59.9565C1.9032 59.6556 1.89588 58.373 2.80096 58.0617L25.8122 50.1462C26.4614 49.9229 27.1374 50.4053 27.1374 51.0919L27.1374 66.6299Z" fill="#0054DC"/>
<path d="M89.9994 51.0749C89.9994 50.3931 90.6666 49.9112 91.3138 50.1256L114.325 57.7482C115.234 58.0492 115.241 59.3318 114.336 59.6431L91.3246 67.5585C90.6754 67.7819 89.9994 67.2995 89.9994 66.6129V51.0749Z" fill="#0054DC"/>
<path d="M26.5484 27.6459C26.3637 26.9068 27.0402 26.2407 27.7763 26.4371L41.4282 30.079C42.9441 30.4834 43.4254 32.3959 42.2815 33.4696L33.2011 41.9932C32.0881 43.0379 30.2622 42.5009 29.892 41.02L26.5484 27.6459Z" fill="#D5CE00"/>
<path d="M87.9974 26.1428C88.7365 25.958 89.4026 26.6345 89.2062 27.3706L85.5643 41.0225C85.16 42.5384 83.2474 43.0197 82.1737 41.8758L73.6501 32.7954C72.6054 31.6824 73.1424 29.8565 74.6233 29.4863L87.9974 26.1428Z" fill="#D5CE00"/>
<path d="M30.188 72.6505C30.3646 71.9094 31.2719 71.6301 31.8347 72.1436L42.2722 81.6671C43.4311 82.7245 42.9768 84.6437 41.4669 85.0695L29.4801 88.4492C28.0109 88.8635 26.6379 87.5455 26.9918 86.0606L30.188 72.6505Z" fill="#D5CE00"/>
<path d="M83.4945 72.0326C84.0347 71.4954 84.9533 71.7354 85.1616 72.4682L89.0248 86.0592C89.4538 87.5682 88.0575 88.9611 86.5495 88.5284L74.5782 85.0941C73.111 84.6731 72.6371 82.8299 73.7195 81.7535L83.4945 72.0326Z" fill="#D5CE00"/>
<path d="M81.1377 58C81.1377 70.7321 70.8698 81 58.1377 81C45.4056 81 35.1377 70.7321 35.1377 58C35.1377 45.2679 45.4056 35 58.1377 35C70.8698 35 81.1377 45.2679 81.1377 58Z" fill="url(#paint0_radial_1_1068)"/>
<defs>
<radialGradient id="paint0_radial_1_1068" cx="0" cy="0" r="1" gradientUnits="userSpaceOnUse" gradientTransform="translate(49.1377 50.5) rotate(73.5596) scale(31.8002)">
<stop stop-color="#5693F5"/>
<stop offset="0.521475" stop-color="#0054DC"/>
</radialGradient>
</defs>
</svg>
