<svg width="20" height="20" viewBox="0 0 20 20" fill="none" xmlns="http://www.w3.org/2000/svg">
<g clip-path="url(#clip0_1_626)">
<path d="M18.3334 9.63895C18.3334 14.0416 14.6019 17.6112 10 17.6112C9.45893 17.6119 8.91939 17.5619 8.38787 17.4621C8.00529 17.3902 7.814 17.3543 7.68046 17.3747C7.54692 17.3951 7.35767 17.4957 6.97917 17.697C5.90847 18.2664 4.65998 18.4675 3.45928 18.2442C3.91564 17.6829 4.22731 17.0094 4.36483 16.2873C4.44817 15.8457 4.24169 15.4167 3.93243 15.1026C2.5278 13.6763 1.66669 11.7543 1.66669 9.63895C1.66669 5.23633 5.39817 1.66669 10 1.66669C14.6019 1.66669 18.3334 5.23633 18.3334 9.63895Z" stroke="#FCFCFC" stroke-width="1.5" stroke-linejoin="round"/>
<path d="M9.99628 10H10.0038M13.3259 10H13.3334M6.66669 10H6.67416" stroke="#FCFCFC" stroke-width="2" stroke-linecap="round" stroke-linejoin="round"/>
</g>
<defs>
<clipPath id="clip0_1_626">
<rect width="20" height="20" fill="white"/>
</clipPath>
</defs>
</svg>
