<svg width="37" height="32" viewBox="0 0 37 32" fill="none" xmlns="http://www.w3.org/2000/svg">
<path d="M12.7507 28.6646C7.98231 28.3948 4.18556 24.4303 4.18556 19.5951C4.18556 14.5859 8.26056 10.5106 13.2694 10.5106C15.5095 10.5106 17.6606 11.3326 19.3263 12.8251C21.2502 14.5458 22.3538 17.0136 22.3538 19.5951C22.3538 21.76 21.5772 23.8447 20.1916 25.4765C21.1744 26.1132 22.3026 26.4936 23.4784 26.5803C24.8934 24.5204 25.6389 22.1168 25.6389 19.5951C25.6389 16.8934 24.7836 14.3273 23.1656 12.1742C21.8799 10.4626 20.1688 9.10774 18.217 8.25568C17.1353 7.78255 16.0043 7.47132 14.8393 7.32451C17.1941 5.59103 18.0946 4.13815 18.0946 2.87095C18.0946 1.35031 16.8619 0.117615 15.3412 0.117615C14.5149 0.117615 13.7743 0.482047 13.2696 1.05835C12.765 0.482047 12.0243 0.117615 11.198 0.117615C9.67741 0.117615 8.44471 1.35031 8.44471 2.87095C8.44471 4.13836 9.34547 5.59145 11.7011 7.32527C5.6187 8.09834 0.900543 13.3061 0.900543 19.5951C0.900543 26.4153 6.44913 31.964 13.2694 31.964C14.2123 31.964 15.138 31.8593 16.0392 31.6531C14.801 30.8344 13.689 29.8266 12.7507 28.6646Z" fill="white"/>
<path d="M23.9965 7.22635C23.0535 7.22635 22.1278 7.33097 21.2266 7.53716C22.4648 8.35595 23.5768 9.36375 24.5151 10.5257C29.2835 10.7955 33.0803 14.76 33.0803 19.5951C33.0803 24.6043 29.0054 28.6797 23.9966 28.6797C21.7565 28.6797 19.6054 27.8577 17.9395 26.3652C16.0157 24.6444 14.912 22.1765 14.912 19.5951C14.912 17.4302 15.6886 15.3454 17.0742 13.7137C16.0915 13.0769 14.9633 12.6966 13.7875 12.6098C12.3723 14.6698 11.627 17.0733 11.627 19.595C11.627 22.2967 12.4822 24.8628 14.1003 27.016C15.386 28.7275 17.0971 30.0824 19.0488 30.9345C20.6107 31.6176 22.2751 31.9638 23.9966 31.9638C30.8167 31.9638 36.3653 26.4152 36.3653 19.595C36.3652 12.7749 30.8166 7.22635 23.9965 7.22635Z" fill="white"/>
</svg>
