<svg width="20" height="20" viewBox="0 0 20 20" fill="none" xmlns="http://www.w3.org/2000/svg">
<path d="M3.14804 9.95198C2.35802 8.57444 1.97656 7.44959 1.74655 6.30936C1.40637 4.623 2.18486 2.97569 3.4745 1.92458C4.01956 1.48034 4.64438 1.63212 4.96669 2.21035L5.69434 3.51578C6.27109 4.55049 6.55947 5.06785 6.50227 5.61635C6.44507 6.16484 6.05616 6.61157 5.27833 7.50502L3.14804 9.95198ZM3.14804 9.95198C4.74711 12.7402 7.25655 15.2511 10.0481 16.852M10.0481 16.852C11.4256 17.642 12.5505 18.0235 13.6907 18.2535C15.377 18.5937 17.0243 17.8152 18.0755 16.5255C18.5197 15.9805 18.3679 15.3557 17.7897 15.0334L16.4843 14.3057C15.4495 13.7289 14.9322 13.4406 14.3837 13.4978C13.8352 13.555 13.3885 13.9439 12.495 14.7217L10.0481 16.852Z" stroke="#FCFCFC" stroke-width="1.5" stroke-linejoin="round"/>
</svg>
