<svg width="21" height="22" viewBox="0 0 21 22" fill="none" xmlns="http://www.w3.org/2000/svg">
<path d="M16.2001 22H4.50006C2.02506 22 6.10352e-05 19.975 6.10352e-05 17.5V17.35L0.450059 4.85C0.525059 2.375 2.55006 0.5 4.95006 0.5H15.7501C18.1501 0.5 20.1751 2.375 20.2501 4.85L20.7001 17.35C20.7751 18.55 20.3251 19.675 19.5001 20.575C18.6751 21.475 17.5501 22 16.3501 22C16.3501 22 16.2751 22 16.2001 22ZM4.95006 2C3.30006 2 2.02506 3.275 1.95006 4.85L1.50006 17.5C1.50006 19.15 2.85006 20.5 4.50006 20.5H16.3501C17.1751 20.5 17.9251 20.125 18.4501 19.525C18.9751 18.925 19.2751 18.175 19.2751 17.35L18.8251 4.85C18.7501 3.2 17.4751 2 15.8251 2H4.95006Z" fill="#75757C"/>
<path d="M10.2501 9C7.32506 9 5.00006 6.675 5.00006 3.75C5.00006 3.3 5.30006 3 5.75006 3C6.20006 3 6.50006 3.3 6.50006 3.75C6.50006 5.85 8.15006 7.5 10.2501 7.5C12.3501 7.5 14.0001 5.85 14.0001 3.75C14.0001 3.3 14.3001 3 14.7501 3C15.2001 3 15.5001 3.3 15.5001 3.75C15.5001 6.675 13.1751 9 10.2501 9Z" fill="#75757C"/>
</svg>
