<svg width="34" height="34" viewBox="0 0 34 34" fill="none" xmlns="http://www.w3.org/2000/svg">
<path d="M24.0582 21.4058C23.2591 22.5759 22.1711 23.5195 20.8999 24.1453C19.6287 24.7712 18.2173 25.0578 16.8027 24.9776C15.3881 24.8974 14.0182 24.4529 12.8259 23.6874C11.6335 22.9218 10.6593 21.8612 9.9976 20.6083C9.3359 19.3554 9.0092 17.9527 9.04917 16.5364C9.08915 15.12 9.49445 13.738 10.2258 12.5245C10.9571 11.3109 11.9896 10.3068 13.2232 9.60978C14.4568 8.91271 15.8496 8.54625 17.2665 8.54593C17.5839 8.5209 17.9028 8.5209 18.2203 8.54593C17.6188 9.75236 17.2946 11.078 17.2715 12.4258C17.2483 13.7737 17.5267 15.1096 18.0863 16.336C18.6459 17.5624 19.4725 18.6483 20.5058 19.514C21.5391 20.3798 22.7528 21.0037 24.0582 21.34V21.4058Z" fill="white"/>
<path d="M33.7111 12.6571C33.7111 14.1207 33.2771 15.5515 32.4639 16.7684C31.6508 17.9854 30.495 18.9339 29.1428 19.494C27.7906 20.0541 26.3027 20.2007 24.8672 19.9151C23.4317 19.6296 22.1131 18.9248 21.0782 17.8898C20.0432 16.8549 19.3384 15.5363 19.0529 14.1008C18.7674 12.6653 18.9139 11.1774 19.474 9.8252C20.0341 8.47299 20.9826 7.31724 22.1996 6.5041C23.4165 5.69096 24.8473 5.25694 26.3109 5.25694C26.4804 5.24065 26.6511 5.24065 26.8207 5.25694H26.9358C26.3643 6.201 26.1258 7.30942 26.2585 8.40499C26.3911 9.50056 26.8873 10.52 27.6677 11.3004C28.448 12.0807 29.4675 12.5769 30.563 12.7096C31.6586 12.8422 32.767 12.6037 33.7111 12.0322C33.7182 12.0703 33.7182 12.1093 33.7111 12.1473C33.7274 12.3169 33.7274 12.4876 33.7111 12.6571Z" fill="white"/>
<path d="M17.2663 6.9014C16.8302 6.9014 16.4119 6.72814 16.1035 6.41974C15.7951 6.11134 15.6218 5.69306 15.6218 5.25691V1.96794C15.6218 1.5318 15.7951 1.11352 16.1035 0.805114C16.4119 0.496714 16.8302 0.323456 17.2663 0.323456C17.7025 0.323456 18.1207 0.496714 18.4291 0.805114C18.7375 1.11352 18.9108 1.5318 18.9108 1.96794V5.25691C18.9108 5.69306 18.7375 6.11134 18.4291 6.41974C18.1207 6.72814 17.7025 6.9014 17.2663 6.9014Z" fill="white"/>
<path d="M27.7253 28.8717C27.2938 28.8699 26.8804 28.6986 26.5741 28.3948L24.2389 26.0761C23.9293 25.7664 23.7553 25.3464 23.7553 24.9085C23.7553 24.4706 23.9293 24.0506 24.2389 23.7409C24.5486 23.4313 24.9686 23.2573 25.4065 23.2573C25.8445 23.2573 26.2644 23.4313 26.5741 23.7409L28.8928 26.0761C29.1991 26.3842 29.371 26.801 29.371 27.2355C29.371 27.6699 29.1991 28.0867 28.8928 28.3948C28.7392 28.5472 28.5569 28.6678 28.3566 28.7496C28.1562 28.8315 27.9417 28.873 27.7253 28.8717Z" fill="white"/>
<path d="M17.2663 33.2131C16.8302 33.2131 16.4119 33.0399 16.1035 32.7315C15.7951 32.4231 15.6218 32.0048 15.6218 31.5687V28.2797C15.6218 27.8435 15.7951 27.4253 16.1035 27.1169C16.4119 26.8084 16.8302 26.6352 17.2663 26.6352C17.7025 26.6352 18.1207 26.8084 18.4291 27.1169C18.7375 27.4253 18.9108 27.8435 18.9108 28.2797V31.5687C18.9108 32.0048 18.7375 32.4231 18.4291 32.7315C18.1207 33.0399 17.7025 33.2131 17.2663 33.2131Z" fill="white"/>
<path d="M6.80741 28.8717C6.59098 28.873 6.37644 28.8315 6.17608 28.7496C5.97572 28.6678 5.79349 28.5472 5.63983 28.3948C5.33354 28.0867 5.16162 27.6699 5.16162 27.2355C5.16162 26.801 5.33354 26.3842 5.63983 26.0761L7.95855 23.7409C8.26821 23.4313 8.68821 23.2573 9.12614 23.2573C9.56406 23.2573 9.98406 23.4313 10.2937 23.7409C10.6034 24.0506 10.7773 24.4706 10.7773 24.9085C10.7773 25.3464 10.6034 25.7664 10.2937 26.0761L7.95855 28.3948C7.65225 28.6986 7.23882 28.8699 6.80741 28.8717Z" fill="white"/>
<path d="M5.75493 18.4128H2.46596C2.02981 18.4128 1.61153 18.2396 1.30313 17.9312C0.99473 17.6228 0.821472 17.2045 0.821472 16.7683C0.821472 16.3322 0.99473 15.9139 1.30313 15.6055C1.61153 15.2971 2.02981 15.1238 2.46596 15.1238H5.75493C6.19107 15.1238 6.60935 15.2971 6.91776 15.6055C7.22616 15.9139 7.39942 16.3322 7.39942 16.7683C7.39942 17.2045 7.22616 17.6228 6.91776 17.9312C6.60935 18.2396 6.19107 18.4128 5.75493 18.4128Z" fill="white"/>
<path d="M9.12612 10.2726C8.9097 10.2738 8.69515 10.2324 8.49479 10.1505C8.29443 10.0687 8.1122 9.9481 7.95854 9.79569L5.63981 7.46052C5.3704 7.14593 5.22962 6.74126 5.24561 6.32738C5.2616 5.91351 5.43317 5.5209 5.72604 5.22803C6.01892 4.93515 6.41152 4.76358 6.8254 4.74759C7.23928 4.73161 7.64395 4.87239 7.95854 5.1418L10.2937 7.46052C10.4478 7.6134 10.5702 7.79528 10.6537 7.99568C10.7372 8.19607 10.7801 8.41102 10.7801 8.62811C10.7801 8.8452 10.7372 9.06014 10.6537 9.26054C10.5702 9.46093 10.4478 9.64282 10.2937 9.79569C10.14 9.9481 9.95781 10.0687 9.75745 10.1505C9.55709 10.2324 9.34255 10.2738 9.12612 10.2726Z" fill="white"/>
</svg>
