<svg width="16" height="16" viewBox="0 0 16 16" fill="none" xmlns="http://www.w3.org/2000/svg">
<path d="M15.8983 7.6888C15.7554 7.49327 12.3496 2.9011 7.99992 2.9011C3.65019 2.9011 0.244313 7.49327 0.101531 7.68861C-0.0338438 7.87411 -0.0338438 8.12571 0.101531 8.31121C0.244313 8.50674 3.65019 13.0989 7.99992 13.0989C12.3496 13.0989 15.7554 8.50671 15.8983 8.31136C16.0339 8.12589 16.0339 7.87411 15.8983 7.6888ZM7.99992 12.044C4.79588 12.044 2.02085 8.99605 1.19938 7.99964C2.01979 7.00236 4.78901 3.95604 7.99992 3.95604C11.2038 3.95604 13.9787 7.00342 14.8005 8.00036C13.9801 8.99761 11.2108 12.044 7.99992 12.044Z" fill="#FCFCFC"/>
<path d="M7.99993 4.83517C6.25487 4.83517 4.83508 6.25495 4.83508 8.00002C4.83508 9.74508 6.25487 11.1649 7.99993 11.1649C9.745 11.1649 11.1648 9.74508 11.1648 8.00002C11.1648 6.25495 9.745 4.83517 7.99993 4.83517ZM7.99993 10.1099C6.83649 10.1099 5.89005 9.16342 5.89005 8.00002C5.89005 6.83661 6.83652 5.89014 7.99993 5.89014C9.16334 5.89014 10.1098 6.83661 10.1098 8.00002C10.1098 9.16342 9.16337 10.1099 7.99993 10.1099Z" fill="#FCFCFC"/>
</svg>
